<svg xmlns="http://www.w3.org/2000/svg" width="1201" height="1201" viewBox="0 0 1201 1201" version="1.1">
	<path d="M 100 279.379 L 100 474.758 115.750 475.444 C 124.412 475.821, 139.375 476.794, 149 477.606 C 408.563 499.498, 633.272 667.626, 728.352 911.077 C 748.463 962.573, 762.839 1019.408, 769.434 1073.500 C 770.306 1080.650, 771.291 1088.705, 771.624 1091.400 L 772.229 1096.301 790.365 1095.674 C 889.329 1092.258, 983.395 1042.810, 1044.170 962.257 C 1081.230 913.137, 1104.184 855.150, 1110.468 794.778 C 1112.408 776.134, 1112.433 741.779, 1110.518 723.739 C 1100.137 625.924, 1049.050 539.075, 968.500 482.307 C 925.594 452.069, 875.298 432.255, 822 424.593 C 813.115 423.315, 784.379 421, 777.413 421 C 775.386 421, 775.260 420.382, 774.609 407.250 C 772.218 359.034, 761.596 316.715, 741.472 275.219 C 723.418 237.994, 704.546 211.435, 675.553 182.452 C 658.198 165.103, 644.275 153.659, 624.500 140.491 C 576.781 108.716, 522.901 89.795, 466.696 85.075 C 458.185 84.361, 394.557 84, 276.946 84 L 100 84 100 279.379 M 100 649.714 L 100 707.743 112.250 708.435 C 225.685 714.839, 325.619 758.415, 405.872 836.467 C 473.633 902.371, 520.447 991.291, 535.258 1082.225 L 537.500 1095.992 596.295 1095.996 L 655.091 1096 654.571 1092.750 C 654.286 1090.963, 653.336 1084.325, 652.461 1078 C 639.639 985.317, 601.990 894.516, 544.715 818.142 C 513.894 777.043, 471.545 734.880, 429.790 703.724 C 339.119 636.068, 228.522 596.775, 116.250 592.329 L 100 591.686 100 649.714 M 100 881.859 L 100 939.856 105.750 940.455 C 121.588 942.103, 135.218 944.349, 145.549 947.013 C 191.145 958.769, 232.601 985.686, 262.109 1022.691 C 276.536 1040.784, 291.338 1067.704, 297.606 1087.250 L 300.412 1096 360.225 1096 L 420.038 1096 419.556 1093.750 C 412.202 1059.408, 402.247 1031.370, 387.340 1003.020 C 343.216 919.103, 264.270 856.908, 173 834.159 C 152.701 829.100, 135.179 826.479, 108.250 824.476 L 100 823.863 100 881.859" stroke="none" fill="#000000" fill-rule="evenodd"/>
</svg>